<svg xmlns="http://www.w3.org/2000/svg" xmlns:xlink="http://www.w3.org/1999/xlink" width="45" zoomAndPan="magnify" viewBox="0 0 33.75 36.000001" height="48" preserveAspectRatio="xMidYMid meet" version="1.0"><defs><clipPath id="8c82736d77"><path d="M 0.335938 0 L 33.171875 0 L 33.171875 35.027344 L 0.335938 35.027344 Z M 0.335938 0 " clip-rule="nonzero"/></clipPath><clipPath id="8b6c9246d8"><path d="M 5.234375 17 L 11 17 L 11 25 L 5.234375 25 Z M 5.234375 17 " clip-rule="nonzero"/></clipPath><clipPath id="7cfdb1a3ea"><path d="M 17.535156 17.460938 L 21.621094 17.460938 L 21.621094 25.789062 L 17.535156 25.789062 Z M 17.535156 17.460938 " clip-rule="nonzero"/></clipPath><clipPath id="7f9b2b0659"><path d="M 5.234375 4.632812 L 28.265625 4.632812 L 28.265625 16.550781 L 5.234375 16.550781 Z M 5.234375 4.632812 " clip-rule="nonzero"/></clipPath><clipPath id="a7fa74939d"><path d="M 16 4.625 L 18 4.625 L 18 8 L 16 8 Z M 16 4.625 " clip-rule="nonzero"/></clipPath><clipPath id="332c002cab"><path d="M 5.234375 15 L 9 15 L 9 17 L 5.234375 17 Z M 5.234375 15 " clip-rule="nonzero"/></clipPath><clipPath id="f680928a55"><path d="M 25.464844 15.734375 L 28.265625 15.734375 L 28.265625 16.550781 L 25.464844 16.550781 Z M 25.464844 15.734375 " clip-rule="nonzero"/></clipPath></defs><g clip-path="url(#8c82736d77)"><path fill="#ffffff" d="M 0.335938 0 L 33.171875 0 L 33.171875 35.027344 L 0.335938 35.027344 Z M 0.335938 0 " fill-opacity="1" fill-rule="nonzero"/><path fill="#ffffff" d="M 0.335938 0 L 33.171875 0 L 33.171875 35.027344 L 0.335938 35.027344 Z M 0.335938 0 " fill-opacity="1" fill-rule="nonzero"/><path fill="#ffffff" d="M 0.335938 0 L 34.644531 0 L 34.644531 38.867188 L 0.335938 38.867188 Z M 0.335938 0 " fill-opacity="1" fill-rule="nonzero"/></g><g clip-path="url(#8b6c9246d8)"><path fill="#ff914d" d="M 9.847656 24.886719 L 6.132812 24.886719 C 5.914062 24.886719 5.738281 24.710938 5.738281 24.492188 L 5.738281 24.234375 C 5.738281 24.128906 5.78125 24.027344 5.855469 23.953125 L 7.507812 22.3125 C 7.796875 22.027344 8.03125 21.777344 8.214844 21.570312 C 8.394531 21.359375 8.535156 21.167969 8.636719 20.996094 C 8.738281 20.824219 8.804688 20.660156 8.839844 20.507812 C 8.875 20.355469 8.894531 20.1875 8.894531 20.011719 C 8.894531 19.84375 8.871094 19.683594 8.824219 19.53125 C 8.78125 19.378906 8.710938 19.246094 8.617188 19.132812 C 8.523438 19.015625 8.398438 18.925781 8.25 18.859375 C 8.101562 18.792969 7.921875 18.761719 7.710938 18.761719 C 7.421875 18.761719 7.160156 18.824219 6.921875 18.953125 C 6.792969 19.023438 6.671875 19.105469 6.554688 19.195312 C 6.386719 19.328125 6.140625 19.304688 6.003906 19.140625 C 5.863281 18.972656 5.890625 18.71875 6.0625 18.582031 C 6.242188 18.429688 6.441406 18.304688 6.65625 18.199219 C 6.992188 18.035156 7.386719 17.953125 7.832031 17.953125 C 8.132812 17.953125 8.410156 18 8.660156 18.089844 C 8.910156 18.183594 9.125 18.3125 9.304688 18.484375 C 9.488281 18.652344 9.628906 18.863281 9.726562 19.109375 C 9.828125 19.359375 9.875 19.636719 9.875 19.949219 C 9.875 20.210938 9.839844 20.453125 9.773438 20.675781 C 9.703125 20.898438 9.597656 21.121094 9.457031 21.34375 C 9.3125 21.5625 9.136719 21.792969 8.921875 22.03125 C 8.707031 22.265625 8.453125 22.527344 8.160156 22.808594 L 6.921875 24.015625 L 9.847656 24.015625 C 10.066406 24.015625 10.242188 24.195312 10.242188 24.410156 L 10.242188 24.492188 C 10.242188 24.710938 10.066406 24.886719 9.847656 24.886719 " fill-opacity="1" fill-rule="nonzero"/></g><path fill="#ff914d" d="M 14.375 18.929688 L 11.996094 22.574219 L 14.375 22.574219 Z M 16.074219 23.375 L 15.304688 23.375 L 15.304688 24.484375 C 15.304688 24.707031 15.128906 24.886719 14.90625 24.886719 L 14.773438 24.886719 C 14.554688 24.886719 14.375 24.707031 14.375 24.484375 L 14.375 23.375 L 11.484375 23.375 C 11.265625 23.375 11.085938 23.195312 11.085938 22.972656 L 11.085938 22.886719 C 11.085938 22.683594 11.144531 22.484375 11.253906 22.3125 L 13.777344 18.394531 C 13.914062 18.179688 14.152344 18.050781 14.410156 18.050781 L 14.90625 18.050781 C 15.128906 18.050781 15.304688 18.226562 15.304688 18.449219 L 15.304688 22.574219 L 16.074219 22.574219 C 16.292969 22.574219 16.472656 22.753906 16.472656 22.972656 C 16.472656 23.195312 16.292969 23.375 16.074219 23.375 " fill-opacity="1" fill-rule="nonzero"/><g clip-path="url(#7cfdb1a3ea)"><path fill="#ff914d" d="M 21.574219 18.050781 L 18.324219 25.765625 C 18.261719 25.914062 18.113281 26.011719 17.953125 26.011719 C 17.667969 26.011719 17.472656 25.71875 17.585938 25.453125 L 20.835938 17.738281 C 20.898438 17.589844 21.042969 17.496094 21.207031 17.496094 C 21.492188 17.496094 21.683594 17.785156 21.574219 18.050781 " fill-opacity="1" fill-rule="nonzero"/></g><path fill="#ff914d" d="M 27.773438 19.109375 L 25.125 24.644531 C 25.054688 24.792969 24.90625 24.886719 24.742188 24.886719 L 24.652344 24.886719 C 24.335938 24.886719 24.132812 24.554688 24.273438 24.273438 L 26.945312 18.898438 L 23.675781 18.898438 C 23.441406 18.898438 23.25 18.707031 23.25 18.472656 C 23.25 18.238281 23.441406 18.050781 23.675781 18.050781 L 27.453125 18.050781 C 27.6875 18.050781 27.875 18.238281 27.875 18.472656 L 27.875 18.660156 C 27.875 18.816406 27.839844 18.96875 27.773438 19.109375 " fill-opacity="1" fill-rule="nonzero"/><g clip-path="url(#7f9b2b0659)"><path fill="#ff914d" d="M 27.875 16.539062 C 27.660156 16.539062 27.484375 16.363281 27.484375 16.148438 C 27.484375 10.230469 22.667969 5.414062 16.75 5.414062 C 10.832031 5.414062 6.015625 10.230469 6.015625 16.148438 C 6.015625 16.363281 5.84375 16.539062 5.625 16.539062 C 5.410156 16.539062 5.234375 16.363281 5.234375 16.148438 C 5.234375 14.59375 5.539062 13.085938 6.140625 11.664062 C 6.429688 10.984375 6.785156 10.324219 7.203125 9.710938 C 7.613281 9.097656 8.085938 8.527344 8.609375 8.003906 C 9.128906 7.484375 9.703125 7.011719 10.3125 6.597656 C 10.929688 6.183594 11.585938 5.824219 12.269531 5.539062 C 13.6875 4.9375 15.195312 4.632812 16.75 4.632812 C 18.304688 4.632812 19.8125 4.9375 21.234375 5.539062 C 21.914062 5.824219 22.574219 6.183594 23.191406 6.597656 C 23.800781 7.011719 24.371094 7.484375 24.894531 8.003906 C 25.414062 8.527344 25.886719 9.097656 26.300781 9.710938 C 26.714844 10.324219 27.074219 10.984375 27.363281 11.664062 C 27.960938 13.085938 28.265625 14.59375 28.265625 16.148438 C 28.265625 16.363281 28.089844 16.539062 27.875 16.539062 " fill-opacity="1" fill-rule="nonzero"/></g><path fill="#ff914d" d="M 16.75 16.539062 C 16.640625 16.539062 16.527344 16.492188 16.453125 16.398438 L 11.765625 10.835938 C 11.628906 10.671875 11.648438 10.425781 11.8125 10.285156 C 11.980469 10.148438 12.226562 10.167969 12.363281 10.332031 L 17.050781 15.894531 C 17.1875 16.0625 17.167969 16.308594 17.003906 16.445312 C 16.929688 16.507812 16.839844 16.539062 16.75 16.539062 " fill-opacity="1" fill-rule="nonzero"/><path fill="#ff914d" d="M 16.75 16.539062 C 16.617188 16.539062 16.484375 16.46875 16.414062 16.34375 C 16.304688 16.15625 16.367188 15.917969 16.554688 15.808594 L 20.679688 13.410156 C 20.867188 13.300781 21.105469 13.363281 21.214844 13.550781 C 21.324219 13.738281 21.261719 13.976562 21.074219 14.085938 L 16.949219 16.484375 C 16.886719 16.523438 16.816406 16.539062 16.75 16.539062 " fill-opacity="1" fill-rule="nonzero"/><g clip-path="url(#a7fa74939d)"><path fill="#ff914d" d="M 16.75 7.414062 C 16.535156 7.414062 16.359375 7.238281 16.359375 7.019531 L 16.359375 5.023438 C 16.359375 4.808594 16.535156 4.632812 16.75 4.632812 C 16.964844 4.632812 17.140625 4.808594 17.140625 5.023438 L 17.140625 7.019531 C 17.140625 7.238281 16.964844 7.414062 16.75 7.414062 " fill-opacity="1" fill-rule="nonzero"/></g><g clip-path="url(#332c002cab)"><path fill="#ff914d" d="M 7.625 16.539062 L 5.625 16.539062 C 5.410156 16.539062 5.234375 16.363281 5.234375 16.148438 C 5.234375 15.933594 5.410156 15.757812 5.625 15.757812 L 7.625 15.757812 C 7.839844 15.757812 8.015625 15.933594 8.015625 16.148438 C 8.015625 16.363281 7.839844 16.539062 7.625 16.539062 " fill-opacity="1" fill-rule="nonzero"/></g><g clip-path="url(#f680928a55)"><path fill="#ff914d" d="M 27.875 16.539062 L 25.878906 16.539062 C 25.660156 16.539062 25.488281 16.363281 25.488281 16.148438 C 25.488281 15.933594 25.660156 15.757812 25.878906 15.757812 L 27.875 15.757812 C 28.089844 15.757812 28.265625 15.933594 28.265625 16.148438 C 28.265625 16.363281 28.089844 16.539062 27.875 16.539062 " fill-opacity="1" fill-rule="nonzero"/></g></svg>